<svg version="1" xmlns="http://www.w3.org/2000/svg" width="1654.667" height="1654.667" viewBox="0 0 1241.000000 1241.000000"><path d="M567.8 63.9C535.9 72 525 111.3 548 134.8c13.6 13.9 36.5 16.5 52.6 6 15.4-10 22.7-27.7 18.6-45.2-5.3-23.2-28.5-37.5-51.4-31.7zM659.9 90.7c-21.1 10.5-18.8 41 3.5 48.3 13.2 4.3 29-3.8 32.7-16.8 6.4-22.3-15.8-41.6-36.2-31.5zM447 114.7c-33 5-58 33.6-58.2 66.8-.1 9.9.7 15.1 3.9 23.8 9.5 26.5 33.5 44.1 61.5 45.2 12.9.5 24.5-2.3 35.7-8.5 15.5-8.8 25.7-21 31.7-38.5 2.6-7.2 2.8-9.3 2.8-21.5s-.3-14.2-2.7-21c-10.3-28.1-33.8-45.6-62.2-46.4-5.5-.1-11.1-.1-12.5.1zM728.5 133.6c-3.8.8-11.1 3.5-16.1 6-18.6 9.1-32.5 27.2-36.5 47.6-1.1 5.6-1.3 19.6-.4 23.8.3 1.4.7 3.7 1 5.1.7 3.8 3.4 11 4.6 12.6.6.7.9 1.3.5 1.3-1.3 0 7 12 12 17.3 8.9 9.4 20.2 16 32.9 19.2 7.2 1.8 21.2 2.4 27.5 1.2 25.5-4.8 44.8-21.2 53.7-45.9 2.4-6.6 2.7-8.7 2.7-21.3.1-12.8-.2-14.7-2.7-21.9-7.3-20.8-23.6-36.6-44.2-43.2-10.3-3.3-25-4-35-1.8zM605.9 157.4c-12.5 4.4-20.2 16.3-18.4 28.3 2.5 16.5 18.7 26.6 34.3 21.4 21.8-7.4 23.8-37.6 3.1-48.2-4.9-2.5-14.2-3.2-19-1.5zM874.3 183.5c-11 3.3-17.8 11.5-19 22.8-1.7 16.2 12.7 30.2 28.8 28.3 20.9-2.6 30.5-27.4 16.8-43-6.7-7.5-17.4-10.8-26.6-8.1zM323.7 193.7c-.3.2-1.4.6-2.6.8-4.4.8-12.7 5.3-17.1 9.2-5.5 5-10.7 13.3-12.5 20.3-1.3 5-1.4 17.8-.2 22.7 2.5 9.9 12.3 21.5 22.2 26.4 7.2 3.5 9.1 4 17.5 4.3 23 .9 42.4-16.8 43.6-40 1.2-24.4-18.5-44.7-42.8-44.3-4.3.1-7.9.4-8.1.6zM947.5 225c-8.5 1.9-14.7 6.7-18.8 14.5-3.1 5.8-2.9 16.4.4 22.9 11.7 23.6 46.8 16.6 49.2-9.8 1.3-13.6-9.5-26.5-23.3-27.8-2.5-.2-5.8-.1-7.5.2zM539 234.8c-13 1.9-25.9 11.5-31.8 23.6-14.1 29.1 7.4 61.9 39.8 60.8 30-1.1 49.4-33.3 36.4-60.1-3.9-7.9-7.9-12.6-14.7-17.2-8.7-5.7-20.1-8.5-29.7-7.1zM633.8 236.2c-5.2 1.1-10.9 4.8-14.7 9.7-1.8 2.3-3 4.1-2.7 4.1.4 0-.1 1.4-1 3.2-2.4 4.7-1.5 15.3 1.9 21.1 8.6 14.6 27.4 17.8 39.9 6.8 11.9-10.5 11.9-28.7 0-39.2-6.8-5.9-14-7.7-23.4-5.7zM427.7 269.1c-14.7 3.3-23.3 16.4-20.5 31.5 1.5 7.9 8.9 16.3 16.8 18.9 22 7.3 41.8-14.7 32.2-35.7-3.4-7.5-10.3-13-17.7-14.3-6.5-1.2-6.8-1.2-10.8-.4zM887 274.9c-11.7 3.6-19.1 13.2-19.3 25-.4 23.1 27.7 35.2 44.1 19 10.4-10.2 10.6-26.6.4-36.8-6.9-6.9-16.9-9.7-25.2-7.2zM973.1 289.2c-21.8 5.6-39.3 21.3-47.1 42.1-1.1 3-2.3 6.6-2.6 7.9-.2 1.3-.7 3.6-1 5.3-.8 4-.7 17.1 0 21.5 1.8 10.2 5.9 20.2 11.6 28.5 3 4.3 13.9 15.5 15.1 15.5.4 0 1.4.6 2.1 1.4 2 1.9 11.2 6.5 17.8 8.8 21.5 7.4 48.2 2 65.4-13.3 16.2-14.5 24.1-32.7 23.5-53.7-.6-21.2-10.3-39.9-27.4-52.8-15.7-11.9-38.1-16.2-57.4-11.2zM309.9 301c-10.2 1.8-21.7 11.1-26.3 21-1.6 3.6-2 6.5-2.1 14.5 0 9.1.3 10.5 3 15.8 10.7 21.3 38.4 26.8 56.2 11.2 3.5-3.1 6.3-6.8 8.5-11.3 3-6 3.3-7.5 3.3-15.7s-.3-9.7-3.3-15.7C342 306.1 326 298 309.9 301zM805.5 301.9c-7 2-9.6 3.3-14.9 7.4-16.2 12.7-20.9 35.5-11.2 53.4 11.3 20.8 36.2 28.2 57.7 17.3 6.4-3.3 14.7-12.4 18.2-20 2.6-5.6 3.1-7.8 3.3-15.9.4-15.4-4.7-26.1-16.9-35.4-9.7-7.4-24.2-10.1-36.2-6.8zM677.5 305.6c-16.8 3.7-27.7 9.5-38.1 20.1-19.1 19.6-24.5 50.2-13.3 75.1 15 33.3 52.8 48.9 86.9 36 6.3-2.4 16.8-9.1 22.1-14 14-13 21.9-32 21.4-51.5-.9-31.3-22.4-57.4-53.2-64.8-5.1-1.2-21.8-1.8-25.8-.9zM210.5 333.7c-22.8 2.4-41.3 13.9-53.2 33.2-18 29.4-10.5 67.9 17.5 89.5 26.5 20.4 65.7 17.5 89.4-6.6 8.9-9 14.6-19.2 17.9-32.1 2.5-9.8 2-26.7-1-35.7-8.3-24.2-25.8-40.7-49.2-46.3-6.7-1.6-16.3-2.5-21.4-2zM463.5 345.4c-9 4.2-14.6 12.4-15.1 21.8-.5 11.1 5.3 20.9 15 25.4 6.1 2.8 17.1 2.8 22.5 0 19.2-10.2 19.2-37.4-.1-47-6.9-3.5-15.3-3.5-22.3-.2zM1088.5 349.4c-9.3 4.4-14.5 11.6-15.3 21.2-.9 11.4 4.5 21.1 14.2 25.9 16.7 8.1 35.9-2.7 37.4-21.1 1.6-20-18.6-34.4-36.3-26zM553.9 356.4c-11.1 3.9-17.2 11.5-18.5 22.9-1.2 10.2 4.7 20.6 14.3 25.3 6.8 3.4 13.2 3.8 20.2 1.3 22.2-7.7 23.5-38.5 2.1-48.2-5.4-2.4-13.2-3-18.1-1.3zM363 378.6c-25 4.8-43.9 21.3-52.4 45.3-2.6 7.6-3 10-3 20.1-.1 14.7.7 19.2 5.9 30.5 2.8 6.1 9.6 15.9 14.4 20.5 6.8 6.6 20 14 29.6 16.5 7.4 2 22.3 2.7 29 1.4 22-4.2 40.5-18 49.8-37.2 19.7-40.5-3.9-88.2-48.1-97.2-6.1-1.3-18.6-1.2-25.2.1zM859.5 399.2c-12.6 1.7-24.1 7.4-33.5 16.8-23.3 23.3-22.7 60.3 1.2 83.9 5.2 5 17.3 12.1 23.3 13.6 1.7.4 4.1 1 5.5 1.3 1.4.4 7 .6 12.5.6 16.8-.1 30.7-6.2 42.2-18.9 21-22.9 20.3-58.1-1.6-80.3-13.2-13.3-31.1-19.4-49.6-17zM1071 413.1c-10.7 1.4-18 5-25.5 12.5-16.3 16.3-16.1 43 .5 59.4 13.3 13.2 31.3 16.2 48.5 7.9 8.4-4 15-10.8 19.3-19.9 3.3-6.7 3.6-8.3 3.7-16 0-4.7-.3-10.2-.7-12.3-1.9-9.1-10.1-20.5-18.5-25.3-4.5-2.7-14.4-6.6-15-6-.2.2-1.8.1-3.6-.3s-5.7-.4-8.7 0zM91.5 424.5c-10.8 2.5-20.1 9.7-25.1 19.6-3.4 6.8-4.2 19.1-1.7 26.6 3.3 9.8 10.2 17.6 19.4 21.7 24.3 11.1 51.3-6.7 51-33.6-.2-22.2-22-39.3-43.6-34.3zM557.5 436.6c-29 3.6-52.1 13.5-74 31.4-15.7 12.9-29.1 30.2-37.5 48.3-5.9 12.9-10.3 27.4-11.6 38.5-.3 3.1-.8 6-1.1 6.4-.5 1-.3 26.5.2 30.3.3 1.6.7 4.3.9 6 5.4 39.2 30.7 76.8 66.1 98.5 13.1 8 32.4 15.4 47.2 18l7.1 1.3 2.2 6.1c7 19.3 20.4 42.2 33.6 57.6 1.2 1.4 6.4 7.4 11.5 13.5 5.2 6 10.1 11.7 10.9 12.5 9.8 10.3 23.5 27.7 26.6 33.8 4 7.8 3.9 16.7-.1 26.7-4.3 10.9-11.3 24.4-16.1 31.1-19.5 27.5-47.4 29-81.8 4.5-7.4-5.2-24.7-21.4-32.7-30.6-7.2-8.3-22.4-29.3-28.7-39.7l-2.3-3.7 2.9-2.8c6.9-6.8 12.9-16.4 16.4-26.2 2.9-8.2 2.9-8.6 3.3-20.2.6-20-5.8-36.2-20-50.4-20.1-20-49.7-25.5-75.2-14-20.1 9.2-32.6 24-38.9 46-2.2 7.7-2.2 24.7 0 33 5.9 22.1 23.2 40.7 44.7 48 13.9 4.7 33.5 4.3 46-.9 1.2-.5 2.1.5 3.7 4.5 1.2 2.8 2.2 5.6 2.2 6.1 0 1.9 11.2 23.2 15.9 30.1 5 7.5 17.9 24.8 25.8 34.7 2.4 3 5 6.2 5.6 7 11.8 15 16.4 20.7 17.2 21.7 2.2 2.7 3.3 4.1 9.1 12.3 9.5 13.3 13 18.9 17.8 28.5 6.4 12.7 9.8 23.5 14.1 44.9.3 1 .7 4.4 1.1 7.5.3 3.1.8 5.9 1 6.2.5.8 1.7 21.6 1.7 29.4 0 24.1-2.8 35.3-13.6 53.8-2.9 4.8-5.6 9.6-6.2 10.5-2.1 3.7-14.1 21.1-20.7 29.9-3.7 5.1-6.7 9.4-6.5 9.4.3.2 299.7.4 299.7.3 0-.1-4.2-2.8-9.2-5.9-32.7-20.5-53.2-44.2-59.4-68.5-2.4-9.4-2.3-33 .1-53 1.5-11.7 4-28.9 5-34 .3-1.4.8-3.6 1-5 7.4-38.3 17.3-73.8 25.9-93.3 2.8-6.3 10.5-18 18.5-28.2 5.1-6.5 19-23.4 20.1-24.5.3-.3 3.6-4.1 7.5-8.5 3.8-4.4 7.4-8.5 8-9.1.5-.6 4-4.4 7.6-8.5 10.9-12.1 16-17.6 39.2-42.1l13.9-14.7 6.4 4.4c8.3 5.7 13.3 7.2 24.4 7.6 7.1.2 13-1.5 20.5-5.6 24.3-13.5 28.8-47.3 8.9-66.8-20-19.5-52.7-14.8-66.8 9.5-4.9 8.6-6.6 21.3-4 31 .7 2.9 1.2 5.3 1 5.5-.1.2-10.6 5.4-23.2 11.7-27.7 13.7-45.3 23.7-72.4 41.1-11.3 7.2-23.7 15-27.5 17.3-35.8 20.7-52.3 21.4-61.9 2.4-2.6-5.1-6-16.6-7-23.2-3.4-23.7-4.1-40.7-4-101.5 0-73.4 0-73.5 3.5-81.2 5.6-12.5 10-28.8 11.5-42.8.8-8 .8-24.6-.1-30.2-.3-2.1-1-6.5-1.5-9.8-3.9-24.8-17.6-51.4-36.9-71.8-5.1-5.4-19.5-17.7-20.7-17.7-.4 0-1.6-.7-2.6-1.7-2.1-1.9-2.9-2.3-13.5-7.9-24.2-12.7-53.4-18.1-79.8-14.8zm124.3 233.6c-1 4-2.5 10-3.2 13.3-6.4 28-17.7 65.4-23.9 78.4-11.3 24-29.3 21.7-50.2-6.4-7.2-9.7-23.4-38-22.3-39 .2-.2 2.6-.6 5.3-1 7.3-.8 11.3-1.5 18-3.2 3.3-.8 6.7-1.6 7.5-1.8 7.6-1.7 23.4-8.9 34.2-15.6 11.1-6.9 17.5-12.1 27.5-22.6 4.8-5.1 8.8-9.3 8.9-9.3 0 0-.8 3.3-1.8 7.2zM972.4 448.4c-8.2 3.8-13 9.7-15.1 18.6-3.7 15.5 9.2 31.3 25.4 31.3 27 0 36-35.2 12.6-49-6.3-3.7-16-4.1-22.9-.9z"/><path d="M734.4 453.5c-16.9 5.2-28.9 20-30.1 37.3-2.3 33.7 31.4 56.3 61.4 41.1 18.9-9.6 27.6-32.5 20.1-52.7-6.1-16.4-21.6-27-39.3-27-4.4.1-9.8.6-12.1 1.3zM267.1 478.6c-31.1 6.4-39 47.4-12.7 65.3 6.4 4.3 12.5 6 20.8 5.6 9.5-.4 12.2-1.1 18.5-5.2 10.8-6.9 16.7-17.8 16.6-30.8-.1-22.7-20.9-39.4-43.2-34.9zM1130.8 498.5c-.2.2-1.6.6-3.1.9-1.6.3-4.7 1.6-7 3-14 8.2-17.1 27-6.4 39.2 5.9 6.7 10.7 8.9 19.7 8.9 8.5 0 13.3-2 18.6-7.7 5.4-5.6 6.8-9.5 6.9-17.9 0-11-4.6-18.9-13.8-23.3-4.5-2.1-13.9-4.1-14.9-3.1zM156.1 503.2c-26.1 4.7-48 24.7-54.7 49.8-2.3 8.6-2.6 23.8-.7 32 3 13.5 8.9 23.8 19.2 34.1 13.8 13.6 30.9 20.2 50.6 19.4 10.6-.4 16.2-1.9 27-7 31.6-15.1 46.1-52.2 33.5-85.8-6.9-18.3-23.8-34-43.5-40.3-8.6-2.8-23-3.8-31.4-2.2zM916 518.1c-9.6 4.3-15.2 12.5-15.6 22.7-.6 15.6 10.7 27.6 25.9 27.4 22.6-.2 34.2-26.8 19-43.8-6.8-7.5-20.1-10.4-29.3-6.3zM1010.2 518.6c-9.8 2.8-16 5.9-22.8 11-17.9 13.6-27.9 34.4-27.3 56.4 1.3 45.2 45.3 76.8 88.4 63.4 10-3.1 20.7-9.6 28.3-17.4 32-32.4 23.5-87.1-16.7-107.9-11.3-5.8-17-7.3-30.1-7.6-9.8-.3-12.7 0-19.8 2.1zM364.5 534.3c-9.2 4.5-14.2 11.5-15.2 21.1-2.2 21.3 20.8 35.8 39.4 25 7.9-4.6 12.5-13.1 12.5-22.9 0-9.8-5.2-17.7-15.2-23.4-1.4-.8-5.6-1.6-9.5-1.8-5.9-.3-7.8 0-12 2zM823 533.5c-15.7 3.3-25.4 8.6-36.5 20-12.5 12.7-18.4 26.6-19.1 45-1.8 44.6 40.6 78.9 84.4 68.4 7.3-1.8 20.1-8.2 26.4-13.3 22.7-18.2 31.3-50.2 20.8-77.3-9.9-25.8-34-43-61-43.7-5.2-.2-12 .2-15 .9zM288.5 559c-10.7 2.2-22.3 10.6-27.8 20.1-8 13.6-7.1 33.6 2 45.9 16.3 21.9 46.5 24 65.6 4.4 16.8-17.1 14.4-47.5-5-62.3-9.1-7-23.9-10.5-34.8-8.1zM1139.7 596.9c-6.7 3.4-10.5 7-13.1 12.3-9 18.7 5 39.4 25.4 37.5 13.5-1.2 22.9-11 23.6-24.7.5-10.9-5.2-20.2-15.2-25-5.8-2.7-15.5-2.7-20.7-.1zM382 612.5c-12.2 2.5-22.9 11.4-27.2 22.5-2.9 7.7-2.8 18.5.2 26.5 2.8 7.1 11 16 18 19.2 14.6 6.7 31.5 3.3 42.2-8.5 12.7-14.1 12.5-34.9-.4-49.2-3.8-4.1-12.1-8.9-17.3-9.9-8.9-1.7-10-1.8-15.5-.6zM726.5 618.2c-18.2 6.8-23.4 30.1-9.8 43.3 10 9.7 26.2 9.9 35.9.6 12.7-12.1 10.9-31.8-3.8-41.2-4.2-2.7-6.1-3.3-12.1-3.5-4-.2-8.5.1-10.2.8zM929.1 630.2c-16.6 2.9-26 20.9-19.1 36.5 7.7 17.3 31.7 20.4 43.9 5.6 10.3-12.5 6.3-32.1-8.2-39.4-5.1-2.7-11.3-3.7-16.6-2.7zM170.5 650c-12.7 3.4-21.6 8.2-30.3 16.5-9 8.4-14.8 17.5-18.7 29-2.3 6.9-2.9 11.6-2.9 22.5.1 7.6.6 11.3 2.9 18.3 10.4 32.9 41.5 52.2 76 47.3 27.5-3.9 51.3-27.4 56.4-55.6 1.3-7.4.7-21.1-1.4-29-4.3-17.1-16.8-33.3-32.5-42.3-13.6-7.8-34.7-10.7-49.5-6.7zM306.1 666.6c-25.5 6.8-38.7 35.3-27.4 59.2 3.6 7.8 12.6 16.6 20.7 20.2 21.1 9.6 45.9.4 55.8-20.6 15.1-32.2-14.8-68-49.1-58.8zM1069.6 671c-9.3 3.3-15.8 8.1-21.3 15.8-19.2 26.7-1 64.8 31.8 66.7 24.6 1.4 44.9-17.8 44.9-42.6 0-16.5-9.2-30.8-24.9-38.2-8.6-4.1-21.6-4.8-30.5-1.7zM989.5 679.4c-8.6 2.6-13.1 6.4-16.9 14.2-8.3 16.8 3.8 36.3 22.9 36.9 18.6.6 32.2-18.9 24.7-35.7-5.4-12.4-18.7-19-30.7-15.4zM783.7 682.6c-.1.1-2.3.4-4.8.7-6.3.8-16.5 5.7-21.6 10.3-17.8 16.6-18.4 44.4-1.2 61.4 11.2 11 27.1 15 42.3 10.6 6.8-2 16.5-8.9 21.2-15.1 12.1-16 11.4-38.1-1.8-52.9-8.6-9.6-17.9-14.3-30.1-14.9-2.1-.2-3.9-.2-4-.1zM859.5 688.3c-3.5 1.6-9.2 7.7-10.6 11.4-2.8 7.5.7 17.8 7.8 22.7 3.6 2.5 5.3 3 10.7 3 5.6.1 7-.3 10.7-2.9 5.2-3.7 8.9-10.3 8.9-15.9 0-5.4-3.5-12.2-8.3-16-3.1-2.5-4.8-3.1-10-3.3-3.8-.2-7.4.2-9.2 1zM841.4 741.1c-3.6 1-10.1 7.1-11.6 10.8-3.3 8.4-.4 18.3 7.1 23.6 3.7 2.6 5.1 3 11 3 5.8 0 7.4-.4 10.8-2.8 10.7-7.4 11.6-21.9 1.7-30.5-5.5-4.9-11.7-6.2-19-4.1zM1057.5 764c-17.5 4-21.1 27.1-5.5 35.9 15.3 8.6 33.5-6.6 28-23.3-1.4-4.2-8.3-11.6-10.9-11.6-1 0-2.1-.3-2.5-.7-.9-1-5.5-1.1-9.1-.3zM997.3 774.2c-6.2 2.3-11 6.9-14 13.4-6 13.2-.7 27.6 12.4 34.1 18.2 8.9 38.8-5.3 37-25.6-.9-10.7-8.1-19.7-18.3-22.7-6.2-1.8-10.8-1.6-17.1.8zM278.8 780.5c-.2.1-2.5.5-5.2.8-6.6.8-15.9 4.1-22.8 8-21.7 12.2-34.8 34.4-34.8 58.9-.1 21.2 8 38.8 24.3 52.6 20 17.1 48.8 20.8 73.3 9.3 27.9-13.1 43.5-45.1 37-76-5.5-26.3-28.9-48.7-54.7-52.6-4.8-.7-16.6-1.4-17.1-1zM162.7 802.2c-19.7 4.1-28 27.4-15.2 42.6 1.5 1.8 4.8 4.5 7.4 6 3.9 2.3 5.7 2.7 12.1 2.7 8.8 0 13.7-1.9 19.1-7.6 5.3-5.5 7.2-10.3 7.2-17.9-.1-7.1-1.8-12-5.9-16.9-5.6-6.7-16.5-10.6-24.7-8.9zM920.3 802.6c-3.6.8-11.1 8.1-12.4 12.2-5.5 16.8 10.7 31.6 26.7 24.3 13.4-6.1 14.6-25.4 2.1-33.7-3.9-2.6-11.5-3.8-16.4-2.8z"/></svg>